<svg width="40" height="40" viewBox="0 0 72 72"
    xmlns="http://www.w3.org/2000/svg">
    <path stroke="#FFF" d="M35 0C15.671 0 0 15.671 0 35s15.671 35 35 35 35-15.671 35-35S54.329 0 35 0z" opacity=".6"></path>
    <path fill="#E0E0E0" d="M50 48.716c0 .71-.565 1.284-1.252 1.284h-8.49A1.269 1.269 0 0139 48.716V22.279c0-.71.56-1.279 1.257-1.279h8.49c.69 0 1.253.57 1.253 1.279v26.437zm-18 0c0 .71-.56 1.284-1.257 1.284h-8.488C21.563 50 21 49.426 21 48.716V22.279c0-.71.563-1.279 1.255-1.279h8.488c.697 0 1.257.57 1.257 1.279v26.437z"></path>
</svg>